<svg xmlns="http://www.w3.org/2000/svg" viewBox="0 0 220 52" fill="none">
  <defs>
    <linearGradient id="grad" x1="0" y1="0" x2="0" y2="1">
      <stop offset="0%" stop-color="#4f46e5"/>
      <stop offset="100%" stop-color="#6366f1"/>
    </linearGradient>
  </defs>
  <!-- V icon - two people coming together -->
  <g transform="translate(6, 6)">
    <path d="M18 0 C12 6 6 16 0 32 C4 28 10 22 14 18 C12 14 10 8 12 4 C14 1 16 0 18 0Z" fill="url(#grad)"/>
    <path d="M18 0 C24 6 30 16 36 32 C32 28 26 22 22 18 C24 14 26 8 24 4 C22 1 20 0 18 0Z" fill="#6366f1"/>
    <path d="M18 2 C14 8 8 18 4 28 C8 24 14 18 18 14 Z" fill="#818cf8"/>
    <path d="M18 2 C22 8 28 18 32 28 C28 24 22 18 18 14 Z" fill="#818cf8"/>
    <circle cx="18" cy="6" r="4" fill="#eef2ff" opacity="0.4"/>
  </g>
  <text x="60" y="34" font-family="-apple-system, BlinkMacSystemFont, 'Segoe UI', Roboto, sans-serif" font-size="24" font-weight="700" fill="#111827" letter-spacing="-0.5">oluntry</text>
</svg>
